<?xml version="1.0" encoding="utf-8"?>
<svg xmlns="http://www.w3.org/2000/svg" xmlns:xlink="http://www.w3.org/1999/xlink" width="600" height="400" viewBox="0 0 2400 1600">
<defs>
  <clipPath id="clip600">
    <rect x="0" y="0" width="2400" height="1600"/>
  </clipPath>
</defs>
<path clip-path="url(#clip600)" d="
M0 1600 L2400 1600 L2400 0 L0 0  Z
  " fill="#ffffff" fill-rule="evenodd" fill-opacity="1"/>
<defs>
  <clipPath id="clip601">
    <rect x="480" y="0" width="1681" height="1600"/>
  </clipPath>
</defs>
<path clip-path="url(#clip600)" d="
M47.2441 459.423 L432.756 459.423 L432.756 73.9108 L47.2441 73.9108  Z
  " fill="#ffffff" fill-rule="evenodd" fill-opacity="1"/>
<defs>
  <clipPath id="clip602">
    <rect x="47" y="73" width="387" height="387"/>
  </clipPath>
</defs>
<circle clip-path="url(#clip602)" cx="240" cy="170.289" r="36" fill="#009af9" fill-rule="evenodd" fill-opacity="1" stroke="#000000" stroke-opacity="1" stroke-width="3.2"/>
<circle clip-path="url(#clip602)" cx="143.622" cy="266.667" r="36" fill="#009af9" fill-rule="evenodd" fill-opacity="1" stroke="#000000" stroke-opacity="1" stroke-width="3.2"/>
<circle clip-path="url(#clip602)" cx="240" cy="363.045" r="36" fill="#009af9" fill-rule="evenodd" fill-opacity="1" stroke="#000000" stroke-opacity="1" stroke-width="3.2"/>
<circle clip-path="url(#clip602)" cx="336.378" cy="266.667" r="36" fill="#009af9" fill-rule="evenodd" fill-opacity="1" stroke="#000000" stroke-opacity="1" stroke-width="3.2"/>
<path clip-path="url(#clip600)" d="
M527.244 459.423 L912.756 459.423 L912.756 73.9108 L527.244 73.9108  Z
  " fill="#ffffff" fill-rule="evenodd" fill-opacity="1"/>
<defs>
  <clipPath id="clip603">
    <rect x="527" y="73" width="387" height="387"/>
  </clipPath>
</defs>
<circle clip-path="url(#clip603)" cx="720" cy="170.289" r="36" fill="#009af9" fill-rule="evenodd" fill-opacity="1" stroke="#000000" stroke-opacity="1" stroke-width="3.2"/>
<circle clip-path="url(#clip603)" cx="623.622" cy="266.667" r="36" fill="#009af9" fill-rule="evenodd" fill-opacity="1" stroke="#000000" stroke-opacity="1" stroke-width="3.2"/>
<circle clip-path="url(#clip603)" cx="720" cy="363.045" r="36" fill="#009af9" fill-rule="evenodd" fill-opacity="1" stroke="#000000" stroke-opacity="1" stroke-width="3.2"/>
<circle clip-path="url(#clip603)" cx="816.378" cy="266.667" r="36" fill="#e26f46" fill-rule="evenodd" fill-opacity="1" stroke="#000000" stroke-opacity="1" stroke-width="3.2"/>
<path clip-path="url(#clip600)" d="
M1007.24 459.423 L1392.76 459.423 L1392.76 73.9108 L1007.24 73.9108  Z
  " fill="#ffffff" fill-rule="evenodd" fill-opacity="1"/>
<defs>
  <clipPath id="clip604">
    <rect x="1007" y="73" width="387" height="387"/>
  </clipPath>
</defs>
<circle clip-path="url(#clip604)" cx="1200" cy="170.289" r="36" fill="#009af9" fill-rule="evenodd" fill-opacity="1" stroke="#000000" stroke-opacity="1" stroke-width="3.2"/>
<circle clip-path="url(#clip604)" cx="1103.62" cy="266.667" r="36" fill="#009af9" fill-rule="evenodd" fill-opacity="1" stroke="#000000" stroke-opacity="1" stroke-width="3.2"/>
<circle clip-path="url(#clip604)" cx="1296.38" cy="266.667" r="36" fill="#009af9" fill-rule="evenodd" fill-opacity="1" stroke="#000000" stroke-opacity="1" stroke-width="3.2"/>
<circle clip-path="url(#clip604)" cx="1200" cy="363.045" r="36" fill="#e26f46" fill-rule="evenodd" fill-opacity="1" stroke="#000000" stroke-opacity="1" stroke-width="3.2"/>
<path clip-path="url(#clip600)" d="
M1487.24 459.423 L1872.76 459.423 L1872.76 73.9108 L1487.24 73.9108  Z
  " fill="#ffffff" fill-rule="evenodd" fill-opacity="1"/>
<defs>
  <clipPath id="clip605">
    <rect x="1487" y="73" width="387" height="387"/>
  </clipPath>
</defs>
<circle clip-path="url(#clip605)" cx="1680" cy="170.289" r="36" fill="#009af9" fill-rule="evenodd" fill-opacity="1" stroke="#000000" stroke-opacity="1" stroke-width="3.2"/>
<circle clip-path="url(#clip605)" cx="1583.62" cy="266.667" r="36" fill="#009af9" fill-rule="evenodd" fill-opacity="1" stroke="#000000" stroke-opacity="1" stroke-width="3.2"/>
<circle clip-path="url(#clip605)" cx="1680" cy="363.045" r="36" fill="#e26f46" fill-rule="evenodd" fill-opacity="1" stroke="#000000" stroke-opacity="1" stroke-width="3.2"/>
<circle clip-path="url(#clip605)" cx="1776.38" cy="266.667" r="36" fill="#e26f46" fill-rule="evenodd" fill-opacity="1" stroke="#000000" stroke-opacity="1" stroke-width="3.2"/>
<path clip-path="url(#clip600)" d="
M1967.24 459.423 L2352.76 459.423 L2352.76 73.9108 L1967.24 73.9108  Z
  " fill="#ffffff" fill-rule="evenodd" fill-opacity="1"/>
<defs>
  <clipPath id="clip606">
    <rect x="1967" y="73" width="387" height="387"/>
  </clipPath>
</defs>
<circle clip-path="url(#clip606)" cx="2160" cy="170.289" r="36" fill="#009af9" fill-rule="evenodd" fill-opacity="1" stroke="#000000" stroke-opacity="1" stroke-width="3.2"/>
<circle clip-path="url(#clip606)" cx="2063.62" cy="266.667" r="36" fill="#009af9" fill-rule="evenodd" fill-opacity="1" stroke="#000000" stroke-opacity="1" stroke-width="3.2"/>
<circle clip-path="url(#clip606)" cx="2160" cy="363.045" r="36" fill="#e26f46" fill-rule="evenodd" fill-opacity="1" stroke="#000000" stroke-opacity="1" stroke-width="3.2"/>
<circle clip-path="url(#clip606)" cx="2256.38" cy="266.667" r="36" fill="#3da44d" fill-rule="evenodd" fill-opacity="1" stroke="#000000" stroke-opacity="1" stroke-width="3.2"/>
<path clip-path="url(#clip600)" d="
M47.2441 992.756 L432.756 992.756 L432.756 607.244 L47.2441 607.244  Z
  " fill="#ffffff" fill-rule="evenodd" fill-opacity="1"/>
<defs>
  <clipPath id="clip607">
    <rect x="47" y="607" width="387" height="387"/>
  </clipPath>
</defs>
<circle clip-path="url(#clip607)" cx="240" cy="703.622" r="36" fill="#009af9" fill-rule="evenodd" fill-opacity="1" stroke="#000000" stroke-opacity="1" stroke-width="3.2"/>
<circle clip-path="url(#clip607)" cx="240" cy="896.378" r="36" fill="#009af9" fill-rule="evenodd" fill-opacity="1" stroke="#000000" stroke-opacity="1" stroke-width="3.2"/>
<circle clip-path="url(#clip607)" cx="336.378" cy="800" r="36" fill="#009af9" fill-rule="evenodd" fill-opacity="1" stroke="#000000" stroke-opacity="1" stroke-width="3.2"/>
<circle clip-path="url(#clip607)" cx="143.622" cy="800" r="36" fill="#e26f46" fill-rule="evenodd" fill-opacity="1" stroke="#000000" stroke-opacity="1" stroke-width="3.2"/>
<path clip-path="url(#clip600)" d="
M527.244 992.756 L912.756 992.756 L912.756 607.244 L527.244 607.244  Z
  " fill="#ffffff" fill-rule="evenodd" fill-opacity="1"/>
<defs>
  <clipPath id="clip608">
    <rect x="527" y="607" width="387" height="387"/>
  </clipPath>
</defs>
<circle clip-path="url(#clip608)" cx="720" cy="703.622" r="36" fill="#009af9" fill-rule="evenodd" fill-opacity="1" stroke="#000000" stroke-opacity="1" stroke-width="3.2"/>
<circle clip-path="url(#clip608)" cx="720" cy="896.378" r="36" fill="#009af9" fill-rule="evenodd" fill-opacity="1" stroke="#000000" stroke-opacity="1" stroke-width="3.2"/>
<circle clip-path="url(#clip608)" cx="623.622" cy="800" r="36" fill="#e26f46" fill-rule="evenodd" fill-opacity="1" stroke="#000000" stroke-opacity="1" stroke-width="3.2"/>
<circle clip-path="url(#clip608)" cx="816.378" cy="800" r="36" fill="#e26f46" fill-rule="evenodd" fill-opacity="1" stroke="#000000" stroke-opacity="1" stroke-width="3.2"/>
<path clip-path="url(#clip600)" d="
M1007.24 992.756 L1392.76 992.756 L1392.76 607.244 L1007.24 607.244  Z
  " fill="#ffffff" fill-rule="evenodd" fill-opacity="1"/>
<defs>
  <clipPath id="clip609">
    <rect x="1007" y="607" width="387" height="387"/>
  </clipPath>
</defs>
<circle clip-path="url(#clip609)" cx="1200" cy="703.622" r="36" fill="#009af9" fill-rule="evenodd" fill-opacity="1" stroke="#000000" stroke-opacity="1" stroke-width="3.2"/>
<circle clip-path="url(#clip609)" cx="1200" cy="896.378" r="36" fill="#009af9" fill-rule="evenodd" fill-opacity="1" stroke="#000000" stroke-opacity="1" stroke-width="3.2"/>
<circle clip-path="url(#clip609)" cx="1103.62" cy="800" r="36" fill="#e26f46" fill-rule="evenodd" fill-opacity="1" stroke="#000000" stroke-opacity="1" stroke-width="3.2"/>
<circle clip-path="url(#clip609)" cx="1296.38" cy="800" r="36" fill="#3da44d" fill-rule="evenodd" fill-opacity="1" stroke="#000000" stroke-opacity="1" stroke-width="3.2"/>
<path clip-path="url(#clip600)" d="
M1487.24 992.756 L1872.76 992.756 L1872.76 607.244 L1487.24 607.244  Z
  " fill="#ffffff" fill-rule="evenodd" fill-opacity="1"/>
<defs>
  <clipPath id="clip6010">
    <rect x="1487" y="607" width="387" height="387"/>
  </clipPath>
</defs>
<circle clip-path="url(#clip6010)" cx="1680" cy="703.622" r="36" fill="#009af9" fill-rule="evenodd" fill-opacity="1" stroke="#000000" stroke-opacity="1" stroke-width="3.2"/>
<circle clip-path="url(#clip6010)" cx="1776.38" cy="800" r="36" fill="#009af9" fill-rule="evenodd" fill-opacity="1" stroke="#000000" stroke-opacity="1" stroke-width="3.2"/>
<circle clip-path="url(#clip6010)" cx="1583.62" cy="800" r="36" fill="#e26f46" fill-rule="evenodd" fill-opacity="1" stroke="#000000" stroke-opacity="1" stroke-width="3.2"/>
<circle clip-path="url(#clip6010)" cx="1680" cy="896.378" r="36" fill="#e26f46" fill-rule="evenodd" fill-opacity="1" stroke="#000000" stroke-opacity="1" stroke-width="3.2"/>
<path clip-path="url(#clip600)" d="
M1967.24 992.756 L2352.76 992.756 L2352.76 607.244 L1967.24 607.244  Z
  " fill="#ffffff" fill-rule="evenodd" fill-opacity="1"/>
<defs>
  <clipPath id="clip6011">
    <rect x="1967" y="607" width="387" height="387"/>
  </clipPath>
</defs>
<circle clip-path="url(#clip6011)" cx="2160" cy="703.622" r="36" fill="#009af9" fill-rule="evenodd" fill-opacity="1" stroke="#000000" stroke-opacity="1" stroke-width="3.2"/>
<circle clip-path="url(#clip6011)" cx="2063.62" cy="800" r="36" fill="#e26f46" fill-rule="evenodd" fill-opacity="1" stroke="#000000" stroke-opacity="1" stroke-width="3.2"/>
<circle clip-path="url(#clip6011)" cx="2160" cy="896.378" r="36" fill="#e26f46" fill-rule="evenodd" fill-opacity="1" stroke="#000000" stroke-opacity="1" stroke-width="3.2"/>
<circle clip-path="url(#clip6011)" cx="2256.38" cy="800" r="36" fill="#e26f46" fill-rule="evenodd" fill-opacity="1" stroke="#000000" stroke-opacity="1" stroke-width="3.2"/>
<path clip-path="url(#clip600)" d="
M47.2441 1526.09 L432.756 1526.09 L432.756 1140.58 L47.2441 1140.58  Z
  " fill="#ffffff" fill-rule="evenodd" fill-opacity="1"/>
<defs>
  <clipPath id="clip6012">
    <rect x="47" y="1140" width="387" height="387"/>
  </clipPath>
</defs>
<circle clip-path="url(#clip6012)" cx="240" cy="1236.96" r="36" fill="#009af9" fill-rule="evenodd" fill-opacity="1" stroke="#000000" stroke-opacity="1" stroke-width="3.2"/>
<circle clip-path="url(#clip6012)" cx="143.622" cy="1333.33" r="36" fill="#e26f46" fill-rule="evenodd" fill-opacity="1" stroke="#000000" stroke-opacity="1" stroke-width="3.2"/>
<circle clip-path="url(#clip6012)" cx="240" cy="1429.71" r="36" fill="#e26f46" fill-rule="evenodd" fill-opacity="1" stroke="#000000" stroke-opacity="1" stroke-width="3.2"/>
<circle clip-path="url(#clip6012)" cx="336.378" cy="1333.33" r="36" fill="#3da44d" fill-rule="evenodd" fill-opacity="1" stroke="#000000" stroke-opacity="1" stroke-width="3.2"/>
<path clip-path="url(#clip600)" d="
M527.244 1526.09 L912.756 1526.09 L912.756 1140.58 L527.244 1140.58  Z
  " fill="#ffffff" fill-rule="evenodd" fill-opacity="1"/>
<defs>
  <clipPath id="clip6013">
    <rect x="527" y="1140" width="387" height="387"/>
  </clipPath>
</defs>
<circle clip-path="url(#clip6013)" cx="720" cy="1236.96" r="36" fill="#009af9" fill-rule="evenodd" fill-opacity="1" stroke="#000000" stroke-opacity="1" stroke-width="3.2"/>
<circle clip-path="url(#clip6013)" cx="816.378" cy="1333.33" r="36" fill="#009af9" fill-rule="evenodd" fill-opacity="1" stroke="#000000" stroke-opacity="1" stroke-width="3.2"/>
<circle clip-path="url(#clip6013)" cx="623.622" cy="1333.33" r="36" fill="#e26f46" fill-rule="evenodd" fill-opacity="1" stroke="#000000" stroke-opacity="1" stroke-width="3.2"/>
<circle clip-path="url(#clip6013)" cx="720" cy="1429.71" r="36" fill="#3da44d" fill-rule="evenodd" fill-opacity="1" stroke="#000000" stroke-opacity="1" stroke-width="3.2"/>
<path clip-path="url(#clip600)" d="
M1007.24 1526.09 L1392.76 1526.09 L1392.76 1140.58 L1007.24 1140.58  Z
  " fill="#ffffff" fill-rule="evenodd" fill-opacity="1"/>
<defs>
  <clipPath id="clip6014">
    <rect x="1007" y="1140" width="387" height="387"/>
  </clipPath>
</defs>
<circle clip-path="url(#clip6014)" cx="1200" cy="1236.96" r="36" fill="#009af9" fill-rule="evenodd" fill-opacity="1" stroke="#000000" stroke-opacity="1" stroke-width="3.2"/>
<circle clip-path="url(#clip6014)" cx="1103.62" cy="1333.33" r="36" fill="#e26f46" fill-rule="evenodd" fill-opacity="1" stroke="#000000" stroke-opacity="1" stroke-width="3.2"/>
<circle clip-path="url(#clip6014)" cx="1296.38" cy="1333.33" r="36" fill="#e26f46" fill-rule="evenodd" fill-opacity="1" stroke="#000000" stroke-opacity="1" stroke-width="3.2"/>
<circle clip-path="url(#clip6014)" cx="1200" cy="1429.71" r="36" fill="#3da44d" fill-rule="evenodd" fill-opacity="1" stroke="#000000" stroke-opacity="1" stroke-width="3.2"/>
<path clip-path="url(#clip600)" d="
M1487.24 1526.09 L1872.76 1526.09 L1872.76 1140.58 L1487.24 1140.58  Z
  " fill="#ffffff" fill-rule="evenodd" fill-opacity="1"/>
<defs>
  <clipPath id="clip6015">
    <rect x="1487" y="1140" width="387" height="387"/>
  </clipPath>
</defs>
<circle clip-path="url(#clip6015)" cx="1680" cy="1236.96" r="36" fill="#009af9" fill-rule="evenodd" fill-opacity="1" stroke="#000000" stroke-opacity="1" stroke-width="3.2"/>
<circle clip-path="url(#clip6015)" cx="1583.62" cy="1333.33" r="36" fill="#e26f46" fill-rule="evenodd" fill-opacity="1" stroke="#000000" stroke-opacity="1" stroke-width="3.2"/>
<circle clip-path="url(#clip6015)" cx="1680" cy="1429.71" r="36" fill="#3da44d" fill-rule="evenodd" fill-opacity="1" stroke="#000000" stroke-opacity="1" stroke-width="3.2"/>
<circle clip-path="url(#clip6015)" cx="1776.38" cy="1333.33" r="36" fill="#3da44d" fill-rule="evenodd" fill-opacity="1" stroke="#000000" stroke-opacity="1" stroke-width="3.2"/>
<path clip-path="url(#clip600)" d="
M1967.24 1526.09 L2352.76 1526.09 L2352.76 1140.58 L1967.24 1140.58  Z
  " fill="#ffffff" fill-rule="evenodd" fill-opacity="1"/>
<defs>
  <clipPath id="clip6016">
    <rect x="1967" y="1140" width="387" height="387"/>
  </clipPath>
</defs>
<circle clip-path="url(#clip6016)" cx="2160" cy="1236.96" r="36" fill="#009af9" fill-rule="evenodd" fill-opacity="1" stroke="#000000" stroke-opacity="1" stroke-width="3.2"/>
<circle clip-path="url(#clip6016)" cx="2063.62" cy="1333.33" r="36" fill="#e26f46" fill-rule="evenodd" fill-opacity="1" stroke="#000000" stroke-opacity="1" stroke-width="3.2"/>
<circle clip-path="url(#clip6016)" cx="2160" cy="1429.71" r="36" fill="#3da44d" fill-rule="evenodd" fill-opacity="1" stroke="#000000" stroke-opacity="1" stroke-width="3.2"/>
<circle clip-path="url(#clip6016)" cx="2256.38" cy="1333.33" r="36" fill="#c271d2" fill-rule="evenodd" fill-opacity="1" stroke="#000000" stroke-opacity="1" stroke-width="3.2"/>
</svg>
